# xmcd
#
# Track frame offsets:
#	150
#	13149
#	25120
#	63885
#	83786
#	97791
#	121170
#	133406
#	144929
#	157943
#	171877
#	182416
#	194303
#	208798
#	221239
#	235954
#
# Disc length: 3327 seconds
#
# Revision: 3
# Processed by: cddbd v1.5.1PL0 Copyright (c) Steve Scherf et al.
# Submitted via: audiograbber 1.83.01
#
DISCID=d60cfd10
DTITLE=Various Artist - Damn Right We Got The Blues [CD2]
DYEAR=2001
DGENRE=Blues
TTITLE0=Muddy Waters - I've Got My Mojo Working
TTITLE1=Bo Diddley - I'm High Again
TTITLE2=Lynyrd Skynyrd - T For Texas (Live)
TTITLE3=Freddie King - Sweet Home Chicago
TTITLE4=Etta James - I Just Want To Make Love To You
TTITLE5=B.B. King - Don't  Answer The Door
TTITLE6=Larry Charles Davis - Texas Flood
TTITLE7=Sonny Boy Williamson - Born Blind
TTITLE8=John Lee Hooker - Mr Lucky
TTITLE9=Howlin' Wolf - Smokestack Lightnin'
TTITLE10=Buddy Guy - First Time I Met the Blues
TTITLE11=Little Milton - Grits Ain't Groceries
TTITLE12=Little Walter - That's It
TTITLE13=Elmore James - Dust My Broom
TTITLE14=Bobby Bland - Stormy Monday Blues
TTITLE15=John Lee Hooker - One Bourbon, One Scotch, One Beer
EXTD=
EXTT0=
EXTT1=
EXTT2=
EXTT3=
EXTT4=
EXTT5=
EXTT6=
EXTT7=
EXTT8=
EXTT9=
EXTT10=
EXTT11=
EXTT12=
EXTT13=
EXTT14=
EXTT15=
PLAYORDER=
